<svg width="23" height="23" viewBox="0 0 23 23" fill="none" xmlns="http://www.w3.org/2000/svg">
<path fill-rule="evenodd" clip-rule="evenodd" d="M18.0967 19.6775L20.1291 17.6451L19.4133 15.0446L19.7252 14.2998L22.0786 12.9719V10.0978L19.7319 8.76429L19.4252 8.02082L20.15 5.41903L18.1162 3.38813L15.5155 4.10373L14.7724 3.79215L13.4443 1.43854H10.5702L9.23674 3.78524L8.49344 4.0918L5.89206 3.36611L3.86139 5.39678L4.5771 7.99791L4.26552 8.74102L1.91191 10.0691V12.9424L4.2565 14.2788L4.56339 15.0229L3.83872 17.6243L5.87016 19.6557L8.47128 18.94L9.21448 19.2516L10.5426 21.6043H13.4159L14.7514 19.2596L15.4954 18.9528L18.0967 19.6775ZM18.2768 13.012L17.4777 14.9206L18.0784 17.1031L17.5574 17.6241L15.3796 17.0174L13.4701 17.8049L12.3503 19.7709H11.6129L10.5024 17.8037L8.59583 17.0043L6.41225 17.6051L5.8921 17.0849L6.49878 14.9072L5.71133 12.9978L3.74524 11.8771V11.1397L5.71342 10.0291L6.51284 8.12246L5.91202 5.93888L6.43109 5.41981L8.60886 6.02733L10.519 5.23954L11.6371 3.27187H12.3738L13.4843 5.24005L15.391 6.03947L17.575 5.43853L18.0964 5.95923L17.4899 8.13658L18.2776 10.0465L20.2452 11.1647V11.9013L18.2768 13.012ZM11.9952 15.1885C9.9702 15.1885 8.32858 13.5469 8.32858 11.5219C8.32858 9.49683 9.9702 7.8552 11.9952 7.8552C14.0203 7.8552 15.6619 9.49683 15.6619 11.5219C15.6619 13.5469 14.0203 15.1885 11.9952 15.1885ZM13.8286 11.5219C13.8286 12.5344 13.0078 13.3552 11.9952 13.3552C10.9827 13.3552 10.1619 12.5344 10.1619 11.5219C10.1619 10.5093 10.9827 9.68854 11.9952 9.68854C13.0078 9.68854 13.8286 10.5093 13.8286 11.5219Z" fill="black"/>
</svg>
