<svg width="32" height="32" viewBox="0 0 32 32" fill="none" xmlns="http://www.w3.org/2000/svg">
<path d="M5.43 9.715L4 10V7.5C4 5.705 4.73 4.08 5.905 2.905C7.08 1.73 8.705 1 10.5 1H14.64C15.29 1 15.88 1.265 16.31 1.69C16.735 2.12 17 2.71 17 3.36C17 4.68 15.925 5.725 14.645 5.725C14.555 5.725 14.47 5.72 14.38 5.71L12.63 5.515C12.545 5.505 12.455 5.5 12.37 5.5C11.06 5.5 10 6.56 10 7.87V8.5H9.335C8.965 8.5 8.63 8.65 8.39 8.89C8.15 9.13 8 9.465 8 9.835C8 10.255 8.2 10.65 8.535 10.9L10 12V14.5L9.645 14.285C8.24 13.445 6.635 13 5 13V12.58C5 11.61 5.145 10.64 5.43 9.715Z" fill="#656D78"/>
<path d="M11 24.5C11 25.33 11.67 26 12.5 26H7C6.45 26 6 25.55 6 25V24H3V22.54C3 20.185 4.645 18.145 6.95 17.655L8.815 17.255C9.175 17.175 9.48 16.975 9.695 16.695L10.075 17.075C10.39 17.39 10.77 17.635 11.18 17.79C11.065 18 11 18.245 11 18.5C11 19.33 11.67 20 12.5 20C11.67 20 11 20.67 11 21.5C11 22.33 11.67 23 12.5 23C11.67 23 11 23.67 11 24.5Z" fill="#4FC1E9"/>
<path d="M7 29H12.5V31H6V29L6.025 28.88C6.335 28.96 6.665 29 7 29Z" fill="#4FC1E9"/>
<path d="M18 21.5V31H12.5V29C12.915 29 13.29 28.83 13.56 28.56C13.83 28.29 14 27.915 14 27.5C14 26.67 13.33 26 12.5 26C13.33 26 14 25.33 14 24.5C14 23.67 13.33 23 12.5 23C13.33 23 14 22.33 14 21.5C14 20.67 13.33 20 12.5 20C13.33 20 14 19.33 14 18.5C14 18.185 13.905 17.895 13.74 17.655C14.22 17.415 14.63 17.05 14.94 16.595L14.95 16.575H14.955C15.225 16.835 15.59 17 16 17H21V21.445C20.67 21.48 20.34 21.5 20 21.5H18Z" fill="#4FC1E9"/>
<path d="M13.74 17.655C13.905 17.895 14 18.185 14 18.5C14 19.33 13.33 20 12.5 20C11.67 20 11 19.33 11 18.5C11 18.245 11.065 18 11.18 17.79C11.43 17.32 11.925 17 12.5 17C13.015 17 13.47 17.26 13.74 17.655Z" fill="#E6E9ED"/>
<path d="M12.5 26C13.3284 26 14 25.3284 14 24.5C14 23.6716 13.3284 23 12.5 23C11.6716 23 11 23.6716 11 24.5C11 25.3284 11.6716 26 12.5 26Z" fill="#E6E9ED"/>
<path d="M12.5 23C13.3284 23 14 22.3284 14 21.5C14 20.6716 13.3284 20 12.5 20C11.6716 20 11 20.6716 11 21.5C11 22.3284 11.6716 23 12.5 23Z" fill="#E6E9ED"/>
<path d="M12.5 26C13.33 26 14 26.67 14 27.5C14 27.915 13.83 28.29 13.56 28.56C13.29 28.83 12.915 29 12.5 29H7C6.665 29 6.335 28.96 6.025 28.88C4.285 28.445 3 26.875 3 25V24H6V25C6 25.55 6.45 26 7 26H12.5Z" fill="#F0D0B4"/>
<path d="M27.995 8.085L28.56 8.44C28.83 8.71 29 9.085 29 9.5V12.5C29 17.13 25.5 20.945 21 21.445V17H21.5C23.985 17 26 14.985 26 12.5L25.67 12.335C25.26 12.13 25 11.71 25 11.25C25 10.975 25.095 10.71 25.26 10.5C25.365 10.36 25.505 10.245 25.67 10.165L26 10V9.5C26 9.115 26.145 8.77 26.385 8.505C26.65 8.195 27.055 8 27.5 8L27.995 8.085Z" fill="#F0D0B4"/>
<path d="M15.77 7.035C15.92 7.335 16.165 7.58 16.465 7.73C16.795 7.895 17 8.23 17 8.6C17 8.855 16.9 9.1 16.715 9.285L16.5 9.5V10.075C16.5 10.32 16.325 10.53 16.08 10.57L14.405 10.85C13.885 10.935 13.5 11.39 13.5 11.915C13.5 12.215 13.62 12.485 13.82 12.68C14.015 12.88 14.285 13 14.585 13H16C16.275 13 16.5 13.225 16.5 13.5V14C16.5 14.55 16.05 15 15.5 15H14.5V15.5C14.5 15.92 14.675 16.305 14.955 16.57V16.575H14.95L14.94 16.595C14.63 17.05 14.22 17.415 13.74 17.655C13.47 17.26 13.015 17 12.5 17C11.925 17 11.43 17.32 11.18 17.79C10.77 17.635 10.39 17.39 10.075 17.075L9.695 16.695C9.885 16.44 10 16.125 10 15.785V14.5V12L8.535 10.9C8.2 10.65 8 10.255 8 9.835C8 9.465 8.15 9.13 8.39 8.89C8.63 8.65 8.965 8.5 9.335 8.5H10V7.87C10 6.56 11.06 5.5 12.37 5.5C12.455 5.5 12.545 5.505 12.63 5.515L14.38 5.71C14.47 5.72 14.555 5.725 14.645 5.725L15.145 5.795L15.77 7.035Z" fill="#F0D0B4"/>
<path d="M26.38 8.5L26.385 8.505C26.145 8.77 26 9.115 26 9.5V10L25.67 10.165C25.505 10.245 25.365 10.36 25.26 10.5H20C19.45 10.5 19 10.05 19 9.5C19 8.95 19.45 8.5 20 8.5H26.38Z" fill="#DFB28B"/>
<path d="M28 8C28 8.03 28 8.055 27.995 8.085L27.5 8C27.055 8 26.65 8.195 26.385 8.505L26.38 8.5H20H19.5C19.225 8.5 19 8.275 19 8C19 7.03 19.39 6.16 20.025 5.525C20.66 4.89 21.53 4.5 22.5 4.5H24.5C26.435 4.5 28 6.065 28 8Z" fill="#CF9E76"/>
<path d="M25 11.25C25 11.71 25.26 12.13 25.67 12.335L26 12.5H19.5C19.225 12.5 19 12.275 19 12V11C19 10.725 19.225 10.5 19.5 10.5H20H25.26C25.095 10.71 25 10.975 25 11.25Z" fill="#CF9E76"/>
<path d="M12.844 7.53354L14.344 7.03406L14.66 7.98284L13.1599 8.48232L12.844 7.53354Z" fill="black"/>
<path d="M28.4885 7.772C28.369 5.6725 26.6285 4 24.5 4H22.5C20.2945 4 18.5 5.7945 18.5 8C18.5 8.255 18.599 8.4855 18.7565 8.662C18.5945 8.9015 18.5 9.19 18.5 9.5C18.5 9.81 18.5945 10.0985 18.7565 10.338C18.599 10.5145 18.5 10.745 18.5 11V12C18.5 12.5515 18.9485 13 19.5 13H25.4645C25.217 14.97 23.536 16.5 21.5 16.5H16C15.4485 16.5 15 16.0515 15 15.5H15.5C16.327 15.5 17 14.827 17 14V13.5C17 12.9485 16.5515 12.5 16 12.5H14.5825C14.261 12.5 14 12.2385 14 11.917C14 11.631 14.205 11.389 14.487 11.342L16.164 11.0625C16.6485 10.9825 17 10.5675 17 10.0765V9.707L17.07 9.637C17.347 9.36 17.5 8.991 17.5 8.5985C17.5 8.0385 17.189 7.5355 16.688 7.285C16.485 7.1835 16.3165 7.015 16.215 6.812L15.7975 5.9765C16.0685 5.8565 16.3225 5.695 16.547 5.4935C17.153 4.9515 17.5 4.1745 17.5 3.3615C17.5 1.7835 16.2165 0.5 14.6385 0.5H10.5C6.64 0.5 3.5 3.64 3.5 7.5V10.61L4.7455 10.361C4.5835 11.089 4.5 11.8325 4.5 12.581V13.5H5C6.545 13.5 8.062 13.92 9.386 14.715L9.5 14.783V15.787C9.5 16.2555 9.1675 16.6665 8.71 16.765L6.847 17.164C4.328 17.704 2.5 19.966 2.5 22.542V25C2.5 26.955 3.755 28.618 5.5 29.2375V31.5H12H13H18.5V22H20C25.2385 22 29.5 17.7385 29.5 12.5V9.5C29.5 8.7585 29.0895 8.117 28.4885 7.772ZM22.5 5H24.5C25.984 5 27.2165 6.084 27.4545 7.5045C26.97 7.5155 26.532 7.702 26.191 8H19.5C19.5 6.3455 20.8455 5 22.5 5ZM25.0415 10H20C19.724 10 19.5 9.7755 19.5 9.5C19.5 9.2245 19.724 9 20 9H25.571C25.529 9.161 25.5 9.3265 25.5 9.5V9.691L25.4475 9.7175C25.296 9.793 25.1605 9.889 25.0415 10ZM19.5 11H24.5185C24.5065 11.082 24.5 11.1655 24.5 11.25C24.5 11.5165 24.563 11.771 24.6745 12H19.5V11ZM15.3205 7.259C15.5185 7.655 15.8455 7.9815 16.241 8.1795C16.401 8.2595 16.5 8.42 16.5 8.5985C16.5 8.7235 16.451 8.8415 16.363 8.93L16 9.293V10.0765L14.3225 10.356C13.556 10.484 13 11.1405 13 11.917C13 12.79 13.71 13.5 14.5825 13.5H16V14C16 14.2755 15.776 14.5 15.5 14.5H12.927C12.5455 14.5 12.203 14.2885 12.0325 13.9475L11.947 13.7765L11.0525 14.224L11.138 14.395C11.479 15.0765 12.1645 15.5 12.927 15.5H14C14 15.898 14.12 16.267 14.321 16.579C14.177 16.7455 14.012 16.893 13.8315 17.019C13.477 16.7 13.0135 16.5 12.5 16.5C11.916 16.5 11.3945 16.756 11.0285 17.1565C10.811 17.0365 10.6055 16.8985 10.4285 16.721L10.3145 16.607C10.43 16.354 10.5 16.078 10.5 15.7875V11.75L8.8335 10.5C8.6245 10.3435 8.5 10.094 8.5 9.8335C8.5 9.374 8.874 9 9.3335 9H10.5V7.869C10.5 6.8385 11.3385 6 12.3685 6C12.438 6 12.507 6.004 12.575 6.011L14.322 6.2055C14.481 6.223 14.6395 6.223 14.7975 6.214L15.3205 7.259ZM13.5 21.5C13.5 22.0515 13.0515 22.5 12.5 22.5C11.9485 22.5 11.5 22.0515 11.5 21.5C11.5 20.9485 11.9485 20.5 12.5 20.5C13.0515 20.5 13.5 20.9485 13.5 21.5ZM13.5 24.5C13.5 25.0515 13.0515 25.5 12.5 25.5C11.9485 25.5 11.5 25.0515 11.5 24.5C11.5 23.9485 11.9485 23.5 12.5 23.5C13.0515 23.5 13.5 23.9485 13.5 24.5ZM11.5 18.5C11.5 17.9485 11.9485 17.5 12.5 17.5C13.0515 17.5 13.5 17.9485 13.5 18.5C13.5 19.0515 13.0515 19.5 12.5 19.5C11.9485 19.5 11.5 19.0515 11.5 18.5ZM5.5005 12.513C5.506 11.7105 5.622 10.916 5.834 10.143L6.5985 9.99L6.402 9.0095L4.5 9.39V7.5C4.5 4.1915 7.1915 1.5 10.5 1.5H14.6385C15.665 1.5 16.5 2.335 16.5 3.3615C16.5 3.8905 16.274 4.3955 15.88 4.7485C15.486 5.1015 14.955 5.2685 14.4325 5.212L12.685 5.0175C12.5795 5.006 12.474 5 12.3685 5C10.787 5 9.5 6.287 9.5 7.869V8H9.3335C8.3225 8 7.5 8.8225 7.5 9.8335C7.5 10.4075 7.774 10.9555 8.2335 11.3L9.5 12.25V13.6335C8.265 12.971 6.8995 12.5865 5.5005 12.513ZM7.0565 18.1415L8.919 17.7425C9.203 17.6815 9.459 17.555 9.6825 17.389L9.7215 17.428C9.97 17.677 10.251 17.882 10.556 18.0485C10.522 18.194 10.5 18.344 10.5 18.5C10.5 19.1005 10.771 19.633 11.191 20C10.771 20.367 10.5 20.8995 10.5 21.5C10.5 22.1005 10.771 22.633 11.191 23C10.771 23.367 10.5 23.8995 10.5 24.5C10.5 24.866 10.606 25.2045 10.778 25.5H7C6.724 25.5 6.5 25.276 6.5 25V21.5H5.5V23.5H3.5V22.542C3.5 20.434 4.996 18.5835 7.0565 18.1415ZM3.5 25V24.5H5.5V25C5.5 25.827 6.173 26.5 7 26.5H12.5C13.0515 26.5 13.5 26.9485 13.5 27.5C13.5 28.0515 13.0515 28.5 12.5 28.5H7C5.0705 28.5 3.5 26.9295 3.5 25ZM6.5 30.5V29.4705C6.6645 29.489 6.831 29.5 7 29.5H12V30.5H6.5ZM18.5 21V20H17.5V30.5H13V29.429C13.8605 29.2055 14.5 28.4295 14.5 27.5C14.5 26.8995 14.229 26.367 13.809 26C14.229 25.633 14.5 25.1005 14.5 24.5C14.5 23.8995 14.229 23.367 13.809 23C14.229 22.633 14.5 22.1005 14.5 21.5C14.5 20.8995 14.229 20.367 13.809 20C14.229 19.633 14.5 19.1005 14.5 18.5C14.5 18.2725 14.4535 18.0575 14.3835 17.8535C14.6305 17.683 14.8565 17.4815 15.0575 17.253C15.3395 17.4055 15.6575 17.5 16 17.5H20.5V20.9745C20.3335 20.9845 20.169 21 20 21H18.5ZM28.5 12.5C28.5 16.6745 25.473 20.148 21.5 20.8595V17.5C24.257 17.5 26.5 15.257 26.5 12.5V12.191L25.8945 11.8885C25.6515 11.7665 25.5 11.522 25.5 11.25C25.5 10.978 25.6515 10.7335 25.8945 10.612L26.5 10.309V9.5C26.5 8.9485 26.9485 8.5 27.5 8.5C28.0515 8.5 28.5 8.9485 28.5 9.5V12.5Z" fill="black"/>
<path d="M21.5 6H22.5V7H21.5V6Z" fill="black"/>
<path d="M24.5 6H25.5V7H24.5V6Z" fill="black"/>
</svg>
