<svg id="Capa_1" enable-background="new 0 0 512 512" height="512" viewBox="0 0 512 512" width="512" xmlns="http://www.w3.org/2000/svg"><g><g><path d="m465.512 210.207c-.198-1.854-.939-3.669-2.094-5.132l-39.716-50.289v-128.98c0-14.23-11.576-25.806-25.806-25.806h-283.792c-14.23 0-25.806 11.576-25.806 25.806v128.98l-39.716 50.289c-1.378 1.744-2.152 3.975-2.152 6.198v290.727c0 5.523 4.477 10 10 10h399.14c5.523 0 10-4.477 10-10v-290.727c0-.36-.021-.716-.058-1.066zm-357.214-184.401c0-3.201 2.604-5.806 5.806-5.806h283.793c3.201 0 5.806 2.604 5.806 5.806v122.421h-295.405zm198.479 411.834c-14.7 0-17.786-12.131-17.786-22.307 0-20.113 11.096-39.004 17.786-39.004s17.787 18.892 17.787 39.004c-.001 10.176-3.086 22.307-17.787 22.307zm10 54.36v-35.517c17.169-4.176 27.787-19.407 27.787-41.15 0-12.794-3.394-26.507-9.312-37.622-7.341-13.789-17.454-21.382-28.475-21.382s-21.133 7.594-28.475 21.382c-5.917 11.115-9.312 24.828-9.312 37.622 0 21.743 10.618 36.974 27.786 41.15v35.517h-77.134v-31.592c15.774-3.743 30.709-16.904 30.709-45.071v-44.943c0-5.523-4.477-10-10-10s-10 4.477-10 10v44.943c0 12.047-3.745 20.216-10.709 23.938v-54.036c0-5.523-4.477-10-10-10s-10 4.477-10 10v54.036c-6.965-3.722-10.709-11.891-10.709-23.938v-44.943c0-5.523-4.477-10-10-10s-10 4.477-10 10v44.943c0 28.167 14.935 41.328 30.709 45.071v31.592h-46.829c-15.34-21.5-23.421-46.768-23.421-73.386 0-69.814 56.798-126.611 126.611-126.611s126.612 56.797 126.612 126.611c0 26.618-8.082 51.886-23.421 73.386zm128.793 0h-62.604c12.9-22.198 19.649-47.229 19.649-73.386 0-80.842-65.77-146.611-146.611-146.611s-146.611 65.77-146.611 146.611c0 26.157 6.748 51.187 19.649 73.386h-62.612v-270.727h143.093c5.523 0 10-4.477 10-10s-4.477-10-10-10h-132.454l26.099-33.046h305.664l26.099 33.046h-135.587c-5.523 0-10 4.477-10 10s4.477 10 10 10h146.226z"/><path d="m324.554 46.76h-137.108c-20.402 0-37 16.598-37 37v.893c0 20.402 16.598 37 37 37h137.107c20.402 0 37-16.598 37-37v-.893c.001-20.402-16.597-37-36.999-37zm17 37.893c0 9.374-7.626 17-17 17h-137.108c-9.374 0-17-7.626-17-17v-.893c0-9.374 7.626-17 17-17h137.107c9.374 0 17 7.626 17 17v.893z"/><path d="m261.56 202.96c-7.562-4.952-17.636 2.207-15.186 10.977 1.146 4.103 4.869 7.117 9.138 7.321 4.263.204 8.282-2.406 9.816-6.389 1.659-4.308.078-9.344-3.768-11.909z"/></g></g></svg>